<?xml version="1.0" standalone="no"?><!-- Generator: Gravit.io --><svg xmlns="http://www.w3.org/2000/svg" xmlns:xlink="http://www.w3.org/1999/xlink" style="isolation:isolate" viewBox="0 0 280 300" width="280" height="300"><defs><clipPath id="_clipPath_vvNPGUdladrHfuaL3Ytz4rEm48oVvsfP"><rect width="280" height="300"/></clipPath></defs><g clip-path="url(#_clipPath_vvNPGUdladrHfuaL3Ytz4rEm48oVvsfP)"><path d=" M 40 208 L 60 219 L 60 173 L 65 170 L 45 159 L 40 162 L 40 208 L 40 208 L 40 208 L 40 208 L 40 208 L 40 208 L 40 208 L 40 208 L 40 208 Z  M 75 141 L 95 153 L 140 127 L 145 130 L 165 118 L 140 104 L 75 141 L 75 141 L 75 141 L 75 141 L 75 141 L 75 141 L 75 141 L 75 141 L 75 141 Z  M 40 92 L 40 150 L 100 185 L 135 165 L 115 153 L 100 162 L 60 139 L 60 81 L 40 92 L 40 92 L 40 92 L 40 92 L 40 92 L 40 92 L 40 92 L 40 92 Z  M 80 69 L 80 127 L 85 130 L 105 118 L 100 115 L 100 58 L 80 69 L 80 69 L 80 69 L 80 69 L 80 69 L 80 69 L 80 69 Z  M 115 147 L 180 185 L 205 170 L 185 159 L 180 162 L 135 136 L 115 147 L 115 147 L 115 147 L 115 147 L 115 147 L 115 147 Z  M 145 136 L 165 147 L 200 127 L 200 69 L 180 58 L 180 115 L 145 136 L 145 136 L 145 136 L 145 136 L 145 136 Z  M 175 147 L 220 173 L 220 219 L 240 208 L 240 162 L 195 136 L 175 147 L 175 147 L 175 147 L 175 147 Z  M 220 81 L 220 139 L 215 141 L 235 153 L 240 150 L 240 92 L 220 81 L 220 81 L 220 81 Z  M 260 220 L 200 254 L 140 289 L 80 254 L 20 220 L 20 150 L 20 81 L 80 46 L 140 12 L 200 46 L 260 81 L 260 150 L 260 220 L 260 220 Z  M 108 241 L 112 230 L 117 230 L 109 251 L 106 251 L 101 237 L 99 243 L 96 251 L 92 251 L 85 230 L 90 230 L 94 242 L 95 241 L 99 230 L 103 230 L 107 242 L 108 241 L 108 241 L 108 241 Z  M 123 230 L 142 230 L 142 235 L 128 235 L 128 238 L 139 238 L 139 243 L 128 243 L 128 246 L 142 246 L 142 251 L 123 251 L 123 230 L 123 230 L 123 230 Z  M 169 234 L 169 234 L 169 236 L 165 236 L 165 235 L 153 235 L 153 238 L 165 238 L 165 238 Q 167 238 168 239 L 168 239 L 168 239 Q 169 241 169 242 L 169 242 L 169 247 L 169 247 Q 169 248 168 250 L 168 250 L 168 250 Q 167 251 165 251 L 165 251 L 153 251 L 153 251 Q 151 251 150 250 L 150 250 L 150 250 Q 149 248 149 247 L 149 247 L 149 245 L 153 245 L 153 246 L 165 246 L 165 243 L 153 243 L 153 243 Q 151 243 150 241 L 150 241 L 150 241 Q 149 240 149 238 L 149 238 L 149 234 L 149 234 Q 149 233 150 231 L 150 231 L 150 231 Q 151 230 153 230 L 153 230 L 165 230 L 165 230 Q 167 230 168 231 L 168 231 L 168 231 Q 169 233 169 234 L 169 234 Z  M 175 235 L 175 230 L 196 230 L 196 235 L 188 235 L 188 251 L 183 251 L 183 235 L 175 235 L 175 235 L 175 235 Z  M 95 201 L 95 206 L 79 206 L 79 218 L 95 218 L 95 222 L 78 222 L 78 222 Q 77 222 75 221 L 75 221 L 75 221 Q 74 220 74 218 L 74 218 L 74 206 L 74 206 Q 74 204 75 202 L 75 202 L 75 202 Q 77 201 78 201 L 78 201 L 95 201 L 95 201 L 95 201 Z  M 118 209 L 118 201 L 123 201 L 123 222 L 118 222 L 118 214 L 106 214 L 106 222 L 101 222 L 101 201 L 106 201 L 106 209 L 118 209 L 118 209 L 118 209 Z  M 134 206 L 134 211 L 146 211 L 146 206 L 134 206 L 134 206 L 134 206 Z  M 173 206 L 162 206 L 162 218 L 173 218 L 173 206 L 173 206 L 173 206 Z  M 205 206 L 205 206 L 205 207 L 201 207 L 201 206 L 189 206 L 189 209 L 201 209 L 201 209 Q 203 209 204 211 L 204 211 L 204 211 Q 205 212 205 214 L 205 214 L 205 218 L 205 218 Q 205 220 204 221 L 204 221 L 204 221 Q 203 222 201 222 L 201 222 L 189 222 L 189 222 Q 187 222 186 221 L 186 221 L 186 221 Q 185 220 185 218 L 185 218 L 185 216 L 189 216 L 189 218 L 201 218 L 201 214 L 189 214 L 189 214 Q 187 214 186 213 L 186 213 L 186 213 Q 185 211 185 210 L 185 210 L 185 206 L 185 206 Q 185 204 186 202 L 186 202 L 186 202 Q 187 201 189 201 L 189 201 L 201 201 L 201 201 Q 203 201 204 203 L 204 203 L 204 203 Q 205 204 205 206 L 205 206 Z  M 134 201 L 134 201 L 146 201 L 146 201 Q 148 201 149 203 L 149 203 L 149 203 Q 150 204 150 206 L 150 206 L 150 222 L 146 222 L 146 215 L 134 215 L 134 222 L 130 222 L 130 206 L 130 206 Q 130 204 131 202 L 131 202 L 131 202 Q 132 201 134 201 L 134 201 Z  M 161 201 L 161 201 L 174 201 L 174 201 Q 175 201 177 203 L 177 203 L 177 203 Q 178 204 178 206 L 178 206 L 178 218 L 178 218 Q 178 220 177 221 L 177 221 L 177 221 Q 175 222 174 222 L 174 222 L 161 222 L 161 222 Q 160 222 158 221 L 158 221 L 158 221 Q 157 220 157 218 L 157 218 L 157 206 L 157 206 Q 157 204 158 202 L 158 202 L 158 202 Q 160 201 161 201 L 161 201 Z " fill-rule="evenodd" fill="rgb(0,0,0)"/></g></svg>